# xmcd
#
# Track frame offsets: 
#        150
#        12463
#        30868
#        44430
#        56785
#        72023
#        84638
#        96793
#        112333
#        130735
#        142940
#        159085
#        173163
#        184418
#        197328
#        215975
#
# Disc length: 3100 seconds
#
# Revision: 28
# Processed by: cddbd v1.5.2PL0 Copyright (c) Steve Scherf et al.
# Submitted via: ExactAudioCopy v1.0b3
#
DISCID=de0c1a10
DTITLE=Björk Guðmundsdóttir and tríó Guðmundar Ingólfssonar - Gling-Gló
DYEAR=1990
DGENRE=Jazz
TTITLE0=Gling-Gló
TTITLE1=Luktar-Gvendur
TTITLE2=Kata Rokkar
TTITLE3=Pabbi Minn
TTITLE4=Brestir Og Brak
TTITLE5=Ástartöfrar
TTITLE6=Bella símamær
TTITLE7=Litli tónlistarmaðurinn
TTITLE8=Það sést ekki sætari mey
TTITLE9=Bílavísur
TTITLE10=Tondeleyo
TTITLE11=Ég veit ei hvað skal segja
TTITLE12=Í dansi með þér
TTITLE13=Börnin við tjörnina
TTITLE14=Ruby Baby
TTITLE15=I Can't Help Loving That Man
EXTD=YEAR: 1990
EXTT0=
EXTT1=
EXTT2=
EXTT3=
EXTT4=
EXTT5=
EXTT6=
EXTT7=
EXTT8=
EXTT9=
EXTT10=
EXTT11=
EXTT12=
EXTT13=
EXTT14=
EXTT15=
PLAYORDER=
